<svg width="40" height="40" viewBox="0 0 40 40" fill="none" xmlns="http://www.w3.org/2000/svg">
<circle cx="20" cy="20" r="20" fill="#D9E7F0"/>
<mask id="mask0_692_16450" style="mask-type:alpha" maskUnits="userSpaceOnUse" x="0" y="0" width="40" height="40">
<circle cx="20" cy="20" r="20" fill="#D9E7F0"/>
</mask>
<g mask="url(#mask0_692_16450)">
<path d="M36 34.9372C32.2631 39.7749 26.4272 42.8833 19.8694 42.8833C13.3117 42.8833 7.47515 39.7749 3.73828 34.9372C4.03926 33.6563 4.67184 32.4785 5.57169 31.5234C6.47154 30.5684 7.60658 29.8703 8.86138 29.5001C9.50858 29.3108 10.1413 29.1679 10.7006 29.1186L10.7629 29.113C10.8186 29.108 10.8709 29.1035 10.9243 29.0979C12.0167 28.9999 13.0462 28.908 14.0206 28.8245C14.0273 28.8245 14.034 28.8245 14.0401 28.8245L14.1375 28.8167L14.9784 28.7467L15.034 28.7416C15.4202 28.711 15.797 28.6819 16.1643 28.6542C17.0168 28.5915 17.8226 28.5394 18.5856 28.5024C19.0269 28.4811 19.4532 28.4643 19.8655 28.4531L20.0831 28.4593C20.8511 28.4834 21.6636 28.5248 22.5267 28.5814L22.9925 28.6128C23.2768 28.6329 23.5662 28.6542 23.8623 28.6766H23.8812C24.1483 28.6968 24.4204 28.7181 24.6976 28.7405C24.9914 28.764 25.2908 28.7889 25.5958 28.815C26.4227 28.8845 27.2918 28.9606 28.2029 29.0436C28.4556 29.066 28.7105 29.0889 28.9703 29.113L29.0332 29.1186C29.5897 29.1679 30.2258 29.3108 30.8697 29.5001C32.126 29.8689 33.2627 30.5664 34.1639 31.5216C35.0652 32.4767 35.6987 33.6553 36 34.9372Z" fill="#167CBF"/>
<path d="M28.0984 30.3902L24.9264 31.6652L23.09 32.6276H16.0342L14.3357 31.5694L11.6406 30.393C11.8949 29.7247 14.629 29.9331 15.1187 28.559C15.85 26.5087 14.6813 24.5352 14.6813 24.5352C14.6813 24.5352 15.2345 24.3112 16.0342 24.0395C16.8494 23.7644 17.9229 23.4451 18.9307 23.2754H20.8089C21.5808 23.4142 22.3429 23.6032 23.0905 23.8412C24.2074 24.1879 25.055 24.5352 25.055 24.5352C25.055 24.5352 23.8863 26.5087 24.6175 28.559C25.1095 29.9303 27.8441 29.7219 28.0984 30.3902Z" fill="white"/>
<path d="M34.7036 35.5844C34.6596 32.737 32.93 30.2503 30.4386 29.4784L26.1842 28.4141C24.2999 29.7389 22.6226 30.5478 19.8674 30.5478C17.1122 30.5478 15.4349 29.7389 13.5506 28.4141L9.29623 29.4784C6.8048 30.2514 5.07466 32.7381 5.03125 35.5844H34.7036Z" fill="#167CBF"/>
<path d="M25.7737 17.4866C25.7737 20.2315 24.817 23.1898 23.0591 25.1745C20.9444 27.5626 17.6744 27.6337 15.5286 25.2916C13.7211 23.3175 12.7461 20.2528 12.7461 17.4866C12.7461 12.8523 15.6621 9.0957 19.2571 9.0957C22.8521 9.0957 25.7737 12.8523 25.7737 17.4866Z" fill="white"/>
<path d="M12.7574 34.1089C13.0718 34.5515 13.4408 34.9049 13.8042 35.2948C13.8977 35.3945 14.0034 35.5362 14.1381 35.571C14.2433 35.5979 14.231 35.4987 14.2327 35.4108C14.2337 35.3038 14.2266 35.1968 14.2115 35.0909C14.1837 34.8814 14.1359 34.6764 14.1002 34.4691C14.0129 33.9829 13.9361 33.4899 13.8676 33.0003C13.812 32.5858 13.7658 32.1696 13.6801 31.7651C13.7943 32.0298 13.9687 32.2637 14.1893 32.448C14.3035 32.5458 14.4262 32.633 14.556 32.7085C14.6189 32.7454 14.6834 32.7796 14.7486 32.811C14.7959 32.8334 14.901 32.9023 14.9517 32.89C14.9444 32.7701 14.8793 32.6312 14.8476 32.5163C14.7101 32.0168 14.604 31.509 14.5299 30.996C14.5182 30.9148 14.507 30.8335 14.497 30.7523C14.492 30.7097 14.4586 30.605 14.4748 30.5663C14.5794 30.3204 15.1036 30.112 15.2961 29.9339C15.6027 29.6536 15.8561 29.3195 16.0441 28.948C16.403 28.2259 16.4303 27.3795 16.4103 26.5762C16.3936 25.8788 16.1849 24.8604 16.5878 24.252C18.8878 20.775 22.0336 21.3856 22.4928 22.4141C22.7754 23.0482 22.5017 24.0526 22.4087 24.7052C22.2796 25.6149 22.0798 26.584 22.2523 27.5016C22.3586 28.0702 22.5195 28.6348 22.7799 29.1424C22.9702 29.5132 23.2195 29.8583 23.5373 30.1076C23.643 30.1913 23.7576 30.2631 23.879 30.3215C23.9365 30.349 23.9956 30.373 24.0559 30.3932C24.2051 30.4442 24.3425 30.3966 24.229 30.6173C24.1812 30.7092 24.1366 30.8005 24.0938 30.8974C23.9992 31.1075 23.9068 31.3187 23.8244 31.5349C23.7522 31.7139 23.6954 31.8989 23.6547 32.0878C23.589 32.4295 23.5551 32.7796 23.5195 33.1269C23.4989 33.3286 23.5195 33.5319 23.49 33.733C23.7126 33.4776 23.8311 33.0524 23.9908 32.7494C24.0851 32.5545 24.2111 32.3769 24.3637 32.2239C24.4922 32.1012 24.5657 31.9914 24.7326 31.9679C24.6147 32.9146 24.1967 33.7963 23.7755 34.6192C23.6247 34.9139 23.4048 35.245 23.1912 35.5872H24.436C25.2993 34.6303 26.0603 33.5846 26.7065 32.4676C30.3577 26.0496 29.4673 18.4693 27.3354 11.653C26.8223 10.0134 26.1762 8.34404 25.125 7.02425C24.5746 6.33355 23.8272 5.75825 23.076 5.36164C22.5044 5.05971 21.6847 4.76561 21.1405 5.2821C21.0002 5.4143 21.0097 5.44679 20.8416 5.38685C20.7142 5.34148 20.5862 5.30002 20.4576 5.26025C20.2428 5.19415 20.018 5.109 19.796 5.07763C19.1376 4.98464 18.4671 5.0894 17.8265 5.26081C16.3663 5.65294 15.0908 6.589 14.1375 7.85108C12.6428 9.83019 11.8882 12.3829 11.3884 14.8533C10.7172 18.1819 10.4477 21.5799 10.586 24.9735C10.7134 28.0853 10.9388 31.5528 12.7574 34.1089Z" fill="#003B62"/>
<path d="M25.7737 17.0313C25.7686 18.4985 25.5116 19.9538 25.014 21.3329C24.5572 22.5978 23.901 23.7691 23.0591 24.7192C20.9444 27.1061 17.6744 27.1778 15.5286 24.8357C13.7205 22.8622 12.7461 19.7969 12.7461 17.0313C12.7461 15.2639 13.1701 13.6237 13.8941 12.2698C14.235 11.6287 14.6611 11.0375 15.1607 10.5125C16.2804 9.34058 17.7078 8.63867 19.2621 8.63867C20.8164 8.63867 22.2444 9.34058 23.3635 10.5125C24.8337 12.0502 25.7737 14.3984 25.7737 17.0313Z" fill="white"/>
<path d="M25.7761 17.0305C25.771 18.4977 25.5141 19.953 25.0165 21.3321C24.8228 19.8925 24.8306 18.338 24.4439 16.8294C23.7928 14.2868 21.4477 13.4364 18.8789 13.5563C17.9251 13.6011 14.8432 13.3451 13.9517 13.0745C13.1776 12.8398 14.5839 12.6163 13.8961 12.2712C13.8098 12.2281 13.7252 12.1839 13.6406 12.1402V10.5117H23.3648C24.8362 12.0494 25.7761 14.3977 25.7761 17.0305Z" fill="#D9E7F0"/>
<path d="M26.8926 17.1188C26.6099 17.1692 26.3361 16.995 26.0923 16.7519C25.8074 16.4718 25.5581 16.0998 25.3689 15.8802C25.1407 15.617 24.8992 15.3666 24.6566 15.1206C23.922 14.3795 23.1045 13.7174 22.1729 13.3073C21.945 13.2078 21.7108 13.1238 21.4717 13.0558C21.0499 12.9348 20.6131 12.8995 20.2347 12.6396C19.8846 12.3993 19.5969 12.0464 19.3265 11.7097C19.056 11.373 18.7878 10.7703 18.4656 10.5333C18.4007 10.6335 18.3425 10.7379 18.2914 10.8459C18.2149 10.9789 18.1343 11.1083 18.0493 11.2341C17.8822 11.4792 17.6995 11.7131 17.5023 11.9343C17.1138 12.3698 16.6788 12.7607 16.2051 13.1001C16.1689 13.1253 16.1327 13.1516 16.0966 13.1763C15.894 13.3197 15.6892 13.4564 15.4933 13.6115C14.6953 14.2473 14.0086 15.04 13.3686 15.8573C13.1371 16.1536 12.9034 16.4494 12.693 16.7648C12.5645 16.9569 12.0024 17.9535 11.7041 17.7949C11.1048 17.4745 11.9184 10.0835 16.4638 8.05175C18.8974 6.965 21.6459 7.72124 23.4824 9.18387C23.9667 9.57594 24.4051 10.0223 24.789 10.5143C25.29 11.1547 25.7269 11.8433 26.0934 12.5702C27.2153 14.7711 27.606 16.9933 26.8926 17.1188Z" fill="#003B62"/>
</g>
</svg>
